<svg viewBox="0 0 2229 2327" xmlns="http://www.w3.org/2000/svg" fill-rule="evenodd" clip-rule="evenodd" stroke-linejoin="round" stroke-miterlimit="1.414"><g fill-rule="nonzero"><path d="M639.645 1523.35s50.29-401.66-322.447-452.937c0 0-76.926 390.2 322.447 452.937" fill="#b75157"/><path d="M613.186 1547.99s-157.252-372.981-505.719-231.031c0 0 128.494 376.381 505.719 231.031" fill="#b75157"/><path d="M602.588 1582.55s-322.676-244.384-553.478 52.775c0 0 299.463 261.713 553.478-52.775" fill="#b75157"/><path d="M610.691 1617.77s-401.653-50.29-452.945 322.439c0 0 390.216 76.918 452.945-322.439" fill="#b75157"/><path d="M635.331 1644.23s-373.005 157.268-231.047 505.72c0 0 376.389-128.495 231.047-505.72" fill="#b75157"/><path d="M669.877 1654.83s-244.384 322.691 52.783 553.477c0 0 261.705-299.47-52.783-553.477" fill="#b75157"/><path d="M705.109 1646.72s-50.291 401.644 322.454 452.937c0 0 76.903-390.2-322.454-452.937" fill="#b75157"/><path d="M731.567 1622.09s157.252 372.997 505.704 231.039c0 0-128.487-376.373-505.704-231.039" fill="#b75157"/><path d="M742.166 1587.55s322.676 244.377 553.462-52.782c0 0-299.462-261.706-553.462 52.782" fill="#b75157"/><path d="M734.063 1552.31s401.636 50.298 452.944-322.439c0 0-390.215-76.91-452.944 322.439" fill="#b75157"/><path d="M709.422 1525.86s372.99-157.26 231.032-505.719c0 0-376.358 128.494-231.032 505.719" fill="#b75157"/><path d="M674.876 1515.26s244.369-322.683-52.783-553.478c0 0-261.705 299.463 52.783 553.478" fill="#b75157"/><path d="M627.952 1537.8s-53.303-372.146-399.791-326.809c0 0 26.652 368.407 399.791 326.809" fill="#f4a854"/><path d="M610.275 1566.34s-232.222-295.637-509.632-83.134c0 0 207.29 305.718 509.632 83.134" fill="#f4a854"/><path d="M609.25 1599.89s-348.932-139.907-482.924 182.831c0 0 332.377 161.109 482.924-182.831" fill="#f4a854"/><path d="M625.125 1629.47s-372.137 53.304-326.808 399.791c0 0 368.407-26.652 326.808-399.791" fill="#f4a854"/><path d="M653.671 1647.13s-295.622 232.238-83.134 509.631c0 0 305.725-207.282 83.134-509.631" fill="#f4a854"/><path d="M687.231 1648.17s-139.907 348.933 182.823 482.917c0 0 161.109-332.369-182.823-482.917" fill="#f4a854"/><path d="M716.801 1632.29s53.303 372.138 399.791 326.801c0 0-26.652-368.391-399.791-326.801" fill="#f4a854"/><path d="M734.479 1603.74s232.222 295.637 509.608 83.126c0 0-207.266-305.71-509.608-83.126" fill="#f4a854"/><path d="M735.503 1570.19s348.933 139.908 482.917-182.823c0 0-332.369-161.109-482.917 182.823" fill="#f4a854"/><path d="M719.628 1540.61s372.13-53.288 326.793-399.775c0 0-368.384 26.659-326.793 399.775" fill="#f4a854"/><path d="M691.083 1522.94s295.629-232.222 83.117-509.631c0 0-305.709 207.29-83.117 509.631" fill="#f4a854"/><path d="M657.53 1521.91s139.9-348.925-182.831-482.917c0 0-161.101 332.369 182.831 482.917" fill="#f4a854"/><path d="M644.081 1554.94s-33.979-237.096-254.733-208.212c0 0 16.982 234.706 254.733 208.212" fill="#e06023"/><path d="M632.158 1594.5s-222.316-89.136-307.689 116.482c0 0 211.762 102.655 307.689-116.482" fill="#e06023"/><path d="M660.457 1624.61s-188.36 147.961-52.964 324.695c0 0 194.78-132.068 52.964-324.695" fill="#e06023"/><path d="M700.672 1615.14s33.963 237.088 254.717 208.212c0 0-16.981-234.714-254.717-208.212" fill="#e06023"/><path d="M712.603 1575.57s222.316 89.16 307.666-116.466c0 0-211.754-102.655-307.666 116.466" fill="#e06023"/><path d="M684.296 1545.49s188.344-147.961 52.956-324.703c0 0-194.772 132.06-52.956 324.703" fill="#e06023"/><path d="M780.094 1592.98c0 63.896-51.789 115.693-115.685 115.693-63.904 0-115.701-51.797-115.701-115.693s51.797-115.701 115.701-115.701c63.896 0 115.685 51.805 115.685 115.701" fill="#ecaf1b"/></g><g fill-rule="nonzero"><path d="M1637.07 674.106s267.776 415.873 352.217 368.203c84.52-47.742 42.176-166.667 140.934-182.269 98.598-15.384 84.578-185.934-408.565-226.746l-84.586 40.812z" fill="#ffbb0e"/><path d="M1565.79 633.294s-253.988 423.638-170.84 473.586c83.214 49.949 171.747-41.951 232.211 34.935 60.471 77.147 209.235-14.841 15.544-455.452l-76.915-53.069zm-7.24-38.222s-476.99-163.844-512.389-75.529c-35.399 88.33 74.15 155.782 6.988 227.341-66.987 71.741 53.773 196.522 465.757-68.744l39.644-83.068z" fill="#ffb13b"/><path d="M1675.36 514.287s424.465-266.637 480.067-188.815c55.725 77.88-34.717 168.191 47.72 222.849 82.467 54.513-4.854 203.06-469.224 37.62l-58.563-71.654z" fill="#ffbb0e"/><path d="M1592.76 522.064s-44.39-488.042 52.677-499.014c97.162-11.052 137.357 108.562 225.68 63.642 88.475-45.145 183.111 99.295-185.557 418.856l-92.8 16.516zm-23.47 31.59s-503.731-47.503-497.033-141.929c6.633-94.404 135.528-110.63 106.298-203.045-29.615-92.452 134.381-155.782 391.185 253.473l-.45 91.501z" fill="#ffb13b"/><path d="M1489.35 578.712c0-90.304 75.609-163.547 169.026-163.547 93.199 0 168.952 73.243 168.952 163.547 0 90.376-75.753 163.692-168.952 163.692-93.417 0-169.026-73.316-169.026-163.692" fill="#965a00"/><path d="M1592.76 570.87c0-34.506 28.766-62.437 64.332-62.437 35.696 0 64.564 27.931 64.564 62.437 0 34.477-28.868 62.423-64.564 62.423-35.566 0-64.332-27.946-64.332-62.423" fill="#a2b038"/></g><g fill-rule="nonzero"><path d="M248.307 471.826C186.285 438.479 64.796 336.438 103.142 265.89c34.309-63.092 287.373 63.286 335.486 98.742 32.276-68.99-60.766-119.006 23.418-174.489 90.097-63.519 158.877 61.396 228.917 100.637 115.216-38.83 146.645-194.091 237.16-221.134 47.732-14.254 136.728 150.225 98.537 227.237-52.741 121.954-185.669 184.832-262.457 289.073-82.711 112.251-157.825 180.608-309.744 118.157-83.961-37.123-143.685-149.17-231.456-164.347" fill="#891f51"/><path d="M260.685 443.832c-4.486-61.048 23.353-221.964 81.587-245.029 53.597-22.372 102.977 84.103 127.158 118.417 41.638 55.429 96.49 104.09 134.197 164.853 36.287 51.479 54.716 110.427 77.809 168.664 16.308 45.006 55.414 115.05 29.251 161.762-54.861 108.019-278.504-114.501-323.397-159.921-51.623-58.659-129.974-137.016-151.213-214.515" fill="#bc3670"/><path d="M605.445 462.807c-14.493-134.433 49.369-206.902 76.238-248.972 48.388-88.04 96.915-81.161 164.585-10.7 49.505 44.738 105.071 98.047 106.345 169.071 1.969 75.682-13.228 163.463-35.87 233.355-34.455 85.955-100.286 152.92-172.862 206.648-22.085-20.404-27.015-52.884-40.505-79.332-22.804-25.037-37.007-56.12-55.862-86.508-37.691-60.752-49.365-106.477-42.069-183.562" fill="#bc3670"/><path d="M675.908 905.878c-86.022 51.673-154.542 73.109-249.067 32.219-159.629-69.67-180.898-209.983-261.527-341.307-15.706-30.757-100.58-117.249-89.292-152.096 15.055-46.429 114.144-11.774 148.166-5.884 154.708 37.279 305.646 86.182 403.301 220.435 55.452 74.418 84.713 158.32 52.999 240.416" fill="#d45184"/><path d="M681.787 871.857c11.131 36.965 62.159 45.794 95.349 46.281 87.981-2.294 170.73-75.562 203.291-152.257 27.138-75.894 19.452-163.058 46.6-238.933 25.504-86.678 75.872-155.053 138.662-214.252-99.41-73.265-288.965 60.342-354.713 136.564-94.842 102.708-86.02 233.868-110.373 364.539-5.897 34.023-23.382 64.28-34.666 99.105" fill="#d45184"/><path d="M557.675 965.256c58.826 42.888 213.658 33.506 237.456-52.096-16.801-12.254-53.823-58.552-75.619-55.136-21.796 3.415-59.688 46.571-80.353 57.246-34.043 20.221-76.496 34.317-103.28 53.401" fill="#278267"/></g><g fill-rule="nonzero"><path d="M1080.63 1150.3s55.705-444.978-357.222-501.785c0 0-85.223 432.283 357.222 501.785" fill="#174e62"/><path d="M1051.32 1177.58S877.099 764.365 491.059 921.633c0 0 142.344 416.973 560.261 255.947" fill="#07394a"/><path d="M1039.57 1215.87s-357.476-270.741-613.17 58.466c0 0 331.759 289.939 613.17-58.466" fill="#174e62"/><path d="M1048.55 1254.9s-444.97-55.714-501.785 357.222c0 0 432.291 85.206 501.785-357.222" fill="#07394a"/><path d="M1075.85 1284.2s-413.224 174.229-255.956 560.26c0 0 416.982-142.352 255.956-560.26" fill="#174e62"/><path d="M1114.12 1295.95s-270.742 357.484 58.475 613.169c0 0 289.939-331.768-58.475-613.169" fill="#07394a"/><path d="M1153.15 1286.97s-55.705 444.97 357.231 501.785c0 0 85.197-432.282-357.231-501.785" fill="#174e62"/><path d="M1182.47 1259.68s174.211 413.225 560.243 255.956c0 0-142.344-416.973-560.243-255.956" fill="#07394a"/><path d="M1194.21 1221.41s357.476 270.732 613.152-58.476c0 0-331.759-289.93-613.152 58.476" fill="#174e62"/><path d="M1185.23 1182.37s444.943 55.731 501.784-357.214c0 0-432.29-85.205-501.784 357.214" fill="#07394a"/><path d="M1157.94 1153.07s413.207-174.22 255.939-560.252c0 0-416.938 142.344-255.939 560.252" fill="#174e62"/><path d="M1119.66 1141.32s270.733-357.475-58.475-613.169c0 0-289.93 331.759 58.475 613.169" fill="#07394a"/><path d="M1067.68 1166.3s-59.052-412.29-442.908-362.054c0 0 29.526 408.13 442.908 362.054" fill="#007c8b"/><path d="M1048.09 1197.92s-257.267-327.521-564.594-92.1c0 0 229.645 338.689 564.594 92.1" fill="#5db1bc"/><path d="M1046.95 1235.09s-386.565-154.997-535.007 202.549c0 0 368.232 178.484 535.007-202.549" fill="#007c8b"/><path d="M1064.55 1267.85s-412.272 59.052-362.063 442.908c0 0 408.139-29.526 362.063-442.908" fill="#5db1bc"/><path d="M1096.16 1287.42s-327.504 257.284-92.099 564.586c0 0 338.697-229.629 92.099-564.586" fill="#007c8b"/><path d="M1133.35 1288.58s-155.005 386.565 202.54 534.99c0 0 178.485-368.206-202.54-534.99" fill="#5db1bc"/><path d="M1166.1 1270.98s59.052 412.281 442.908 362.046c0 0-29.526-408.122-442.908-362.046" fill="#007c8b"/><path d="M1185.69 1239.36s257.267 327.512 564.568 92.09c0 0-229.619-338.679-564.568-92.09" fill="#5db1bc"/><path d="M1186.83 1202.19s386.565 154.996 534.99-202.54c0 0-368.206-178.493-534.99 202.54" fill="#007c8b"/><path d="M1169.24 1169.41s412.272-59.035 362.045-442.89c0 0-408.121 29.534-362.045 442.89" fill="#5db1bc"/><path d="M1137.62 1149.84s327.512-257.267 92.082-564.595c0 0-338.68 229.637-92.082 564.595" fill="#007c8b"/><path d="M1100.44 1148.7s154.996-386.556-202.541-535.007c0 0-178.484 368.223 202.541 535.007" fill="#5db1bc"/><path d="M1085.54 1185.29s-37.643-262.668-282.196-230.669c0 0 18.813 260.02 282.196 230.669" fill="#b3e3fa"/><path d="M1072.34 1229.12s-246.292-98.749-340.873 129.053c0 0 234.601 113.726 340.873-129.053" fill="#b3e3fa"/><path d="M1103.69 1262.47s-208.666 163.918-58.668 359.712c0 0 215.779-146.319 58.668-359.712" fill="#b3e3fa"/><path d="M1148.24 1251.99s37.618 262.658 282.179 230.668c0 0-18.813-260.028-282.179-230.668" fill="#b3e3fa"/><path d="M1161.46 1208.15s246.292 98.766 340.847-129.036c0 0-234.583-113.717-340.847 129.036" fill="#b3e3fa"/><path d="M1130.1 1174.81s208.648-163.918 58.667-359.721c0 0-215.778 146.302-58.667 359.721" fill="#b3e3fa"/><path d="M1236.23 1227.43c0 70.779-57.374 128.171-128.161 128.171-70.796 0-128.18-57.392-128.18-128.171 0-70.787 57.384-128.179 128.18-128.179 70.787 0 128.161 57.392 128.161 128.179" fill="#ecaf1b"/></g><g fill-rule="nonzero"><path d="M1383.23 1594.65c-305.578-456.315 55.998-643.359 283.775-146.79 463.483-289.131 662.333 66.09 156.008 278.763 305.571 456.313-56.015 643.39-283.719 146.814-463.556 289.138-662.396-66.116-156.064-278.787" fill="#ee3041"/><path d="M1803.74 1556.85c543.821 118.229 428.75 501.688-90.314 300.959-111.722 527.073-507.87 408.209-310.927-93.305-543.821-118.228-428.744-501.707 90.314-300.959 111.665-527.118 507.873-408.221 310.927 93.305" fill="#f45243"/><path d="M1422.48 1590.82c28.556-95.159 131.419-148.407 229.789-118.887 98.285 29.494 154.861 130.588 126.305 225.746-28.551 95.145-131.439 148.379-229.724 118.885-98.37-29.52-154.922-130.599-126.37-225.744" fill="#690000"/></g></svg>