<svg viewBox="0 0 137 132" xmlns="http://www.w3.org/2000/svg" fill-rule="evenodd" clip-rule="evenodd" stroke-linejoin="round" stroke-miterlimit="1.414"><path d="M66.804 74.148s29.677 46.092 39.034 40.808c9.368-5.292 4.676-18.472 15.621-20.201 10.928-1.704 9.374-20.607-45.281-25.131l-9.374 4.524zm-7.9-4.524s-28.15 46.952-18.934 52.489c9.222 5.536 19.035-4.65 25.735 3.871 6.702 8.549 23.19-1.645 1.723-50.478l-8.524-5.882zm-.802-4.235S5.238 47.23 1.314 57.018c-3.924 9.789 8.217 17.266.774 25.196-7.425 7.951 5.959 21.781 51.619-7.619l4.395-9.206z" fill="#8d2f69" fill-rule="nonzero"/><path d="M74.461 56.435s47.042-29.55 53.205-20.926c6.176 8.633-3.848 18.641 5.288 24.698 9.141 6.043-.538 22.505-52.003 4.169l-6.49-7.941zm-9.155.863s-4.92-54.09 5.839-55.306C81.913.768 86.368 14.024 96.156 9.046c9.805-5.004 20.294 11.004-20.565 46.421l-10.285 1.831zm-6.014 3.5S3.464 55.533 4.207 45.069c.734-10.462 15.019-12.261 11.781-22.504-3.283-10.246 14.893-17.266 43.354 28.092l-.05 10.141z" fill="#8d2f69" fill-rule="nonzero"/><path d="M50.432 63.576c0-10.009 8.381-18.126 18.733-18.126 10.329 0 18.726 8.117 18.726 18.126 0 10.016-8.397 18.142-18.726 18.142-10.352 0-18.733-8.126-18.733-18.142" fill="#c43e27" fill-rule="nonzero"/><path d="M55.955 62.707c0-7.002 5.838-12.672 13.057-12.672 7.244 0 13.104 5.67 13.104 12.672 0 6.999-5.86 12.669-13.104 12.669-7.219 0-13.057-5.67-13.057-12.669" fill="#f8a650" fill-rule="nonzero"/></svg>