<svg viewBox="0 0 119 119" xmlns="http://www.w3.org/2000/svg" fill-rule="evenodd" clip-rule="evenodd" stroke-linejoin="round" stroke-miterlimit="1.414"><path d="M56.153 53.399s4.782-38.193-30.66-43.069c0 0-7.315 37.104 30.66 43.069" fill="#174e62" fill-rule="nonzero"/><path d="M53.637 55.741S38.684 20.275 5.549 33.773c0 0 12.218 35.789 48.088 21.968" fill="#07394a" fill-rule="nonzero"/><path d="M52.629 59.028S21.946 35.79 0 64.046c0 0 28.475 24.886 52.629-5.018" fill="#174e62" fill-rule="nonzero"/><path d="M53.4 62.377s-38.192-4.782-43.069 30.661c0 0 37.104 7.313 43.069-30.661" fill="#07394a" fill-rule="nonzero"/><path d="M55.742 64.893S20.275 79.847 33.773 112.98c0 0 35.79-12.218 21.969-48.087" fill="#174e62" fill-rule="nonzero"/><path d="M59.028 65.901S35.79 96.584 64.047 118.53c0 0 24.886-28.476-5.019-52.629" fill="#07394a" fill-rule="nonzero"/><path d="M62.377 65.13s-4.781 38.192 30.662 43.069c0 0 7.312-37.104-30.662-43.069" fill="#174e62" fill-rule="nonzero"/><path d="M64.894 62.788s14.952 35.468 48.086 21.969c0 0-12.218-35.789-48.086-21.969" fill="#07394a" fill-rule="nonzero"/><path d="M65.902 59.503s30.682 23.237 52.627-5.019c0 0-28.475-24.885-52.627 5.019" fill="#174e62" fill-rule="nonzero"/><path d="M65.131 56.152s38.19 4.783 43.069-30.66c0 0-37.104-7.313-43.069 30.66" fill="#07394a" fill-rule="nonzero"/><path d="M62.788 53.637S98.254 38.684 84.756 5.55c0 0-35.786 12.218-21.968 48.087" fill="#174e62" fill-rule="nonzero"/><path d="M59.503 52.629S82.74 21.946 54.484 0c0 0-24.885 28.475 5.019 52.629" fill="#07394a" fill-rule="nonzero"/><path d="M55.041 54.772s-5.068-35.387-38.015-31.075c0 0 2.534 35.03 38.015 31.075" fill="#007c8b" fill-rule="nonzero"/><path d="M53.36 57.487S31.278 29.375 4.9 49.582c0 0 19.711 29.07 48.46 7.905" fill="#5db1bc" fill-rule="nonzero"/><path d="M53.263 60.677S20.083 47.374 7.342 78.062c0 0 31.606 15.32 45.921-17.385" fill="#007c8b" fill-rule="nonzero"/><path d="M54.773 63.489s-35.386 5.069-31.076 38.016c0 0 35.031-2.535 31.076-38.016" fill="#5db1bc" fill-rule="nonzero"/><path d="M57.486 65.169s-28.11 22.083-7.905 48.459c0 0 29.071-19.709 7.905-48.459" fill="#007c8b" fill-rule="nonzero"/><path d="M60.678 65.268s-13.304 33.179 17.384 45.919c0 0 15.32-31.604-17.384-45.919" fill="#5db1bc" fill-rule="nonzero"/><path d="M63.489 63.757s5.069 35.387 38.016 31.075c0 0-2.535-35.029-38.016-31.075" fill="#007c8b" fill-rule="nonzero"/><path d="M65.171 61.043s22.081 28.111 48.457 7.905c0 0-19.708-29.07-48.457-7.905" fill="#5db1bc" fill-rule="nonzero"/><path d="M65.268 57.853s33.179 13.304 45.919-17.384c0 0-31.604-15.32-45.919 17.384" fill="#007c8b" fill-rule="nonzero"/><path d="M63.758 55.04s35.386-5.067 31.075-38.014c0 0-35.03 2.535-31.075 38.014" fill="#5db1bc" fill-rule="nonzero"/><path d="M61.044 53.36s28.111-22.081 7.904-48.459c0 0-29.07 19.71-7.904 48.459" fill="#007c8b" fill-rule="nonzero"/><path d="M57.853 53.262s13.304-33.178-17.384-45.92c0 0-15.319 31.605 17.384 45.92" fill="#5db1bc" fill-rule="nonzero"/><path d="M56.575 56.403s-3.231-22.545-24.222-19.799c0 0 1.615 22.318 24.222 19.799" fill="#b3e3fa" fill-rule="nonzero"/><path d="M55.441 60.165s-21.139-8.476-29.257 11.076c0 0 20.136 9.762 29.257-11.076" fill="#b3e3fa" fill-rule="nonzero"/><path d="M58.132 63.028s-17.91 14.069-5.035 30.874c0 0 18.52-12.559 5.035-30.874" fill="#b3e3fa" fill-rule="nonzero"/><path d="M61.956 62.127s3.229 22.545 24.22 19.799c0 0-1.615-22.319-24.22-19.799" fill="#b3e3fa" fill-rule="nonzero"/><path d="M63.091 58.365s21.139 8.477 29.255-11.076c0 0-20.135-9.76-29.255 11.076" fill="#b3e3fa" fill-rule="nonzero"/><path d="M60.399 55.503s17.908-14.069 5.035-30.875c0 0-18.52 12.557-5.035 30.875" fill="#b3e3fa" fill-rule="nonzero"/><path d="M69.508 60.02c0 6.075-4.925 11.001-11 11.001-6.077 0-11.002-4.926-11.002-11.001 0-6.076 4.925-11.002 11.002-11.002 6.075 0 11 4.926 11 11.002" fill="#ecaf1b" fill-rule="nonzero"/></svg>