<svg viewBox="0 0 119 119" xmlns="http://www.w3.org/2000/svg" fill-rule="evenodd" clip-rule="evenodd" stroke-linejoin="round" stroke-miterlimit="1.414"><path d="M56.153 53.399s4.782-38.193-30.661-43.069c0 0-7.315 37.103 30.661 43.069" fill="#b75157" fill-rule="nonzero"/><path d="M53.637 55.741S38.684 20.275 5.549 33.773c0 0 12.218 35.789 48.088 21.968" fill="#b75157" fill-rule="nonzero"/><path d="M52.629 59.027S21.947 35.789 0 64.046c0 0 28.475 24.885 52.629-5.019" fill="#b75157" fill-rule="nonzero"/><path d="M53.399 62.377s-38.192-4.782-43.069 30.66c0 0 37.105 7.314 43.069-30.66" fill="#b75157" fill-rule="nonzero"/><path d="M55.742 64.893S20.274 79.847 33.773 112.98c0 0 35.79-12.218 21.969-48.087" fill="#b75157" fill-rule="nonzero"/><path d="M59.027 65.9s-23.238 30.684 5.019 52.629c0 0 24.885-28.476-5.019-52.629" fill="#b75157" fill-rule="nonzero"/><path d="M62.378 65.13s-4.782 38.191 30.661 43.069c0 0 7.313-37.104-30.661-43.069" fill="#b75157" fill-rule="nonzero"/><path d="M64.893 62.788s14.953 35.467 48.087 21.969c0 0-12.218-35.789-48.087-21.969" fill="#b75157" fill-rule="nonzero"/><path d="M65.901 59.503s30.683 23.237 52.628-5.019c0 0-28.476-24.885-52.628 5.019" fill="#b75157" fill-rule="nonzero"/><path d="M65.131 56.152s38.19 4.783 43.069-30.66c0 0-37.105-7.313-43.069 30.66" fill="#b75157" fill-rule="nonzero"/><path d="M62.788 53.637S98.254 38.684 84.756 5.549c0 0-35.787 12.219-21.968 48.088" fill="#b75157" fill-rule="nonzero"/><path d="M59.503 52.629S82.739 21.946 54.484 0c0 0-24.885 28.475 5.019 52.629" fill="#b75157" fill-rule="nonzero"/><path d="M55.041 54.772s-5.069-35.386-38.015-31.075c0 0 2.534 35.031 38.015 31.075" fill="#f4a854" fill-rule="nonzero"/><path d="M53.36 57.486S31.278 29.375 4.9 49.581c0 0 19.711 29.07 48.46 7.905" fill="#f4a854" fill-rule="nonzero"/><path d="M53.263 60.677S20.083 47.373 7.342 78.062c0 0 31.605 15.319 45.921-17.385" fill="#f4a854" fill-rule="nonzero"/><path d="M54.772 63.489s-35.386 5.069-31.075 38.016c0 0 35.031-2.535 31.075-38.016" fill="#f4a854" fill-rule="nonzero"/><path d="M57.486 65.169s-28.11 22.083-7.905 48.46c0 0 29.071-19.71 7.905-48.46" fill="#f4a854" fill-rule="nonzero"/><path d="M60.678 65.268s-13.304 33.179 17.384 45.919c0 0 15.319-31.604-17.384-45.919" fill="#f4a854" fill-rule="nonzero"/><path d="M63.489 63.757s5.069 35.386 38.016 31.075c0 0-2.535-35.029-38.016-31.075" fill="#f4a854" fill-rule="nonzero"/><path d="M65.17 61.043s22.082 28.112 48.458 7.904c0 0-19.709-29.069-48.458-7.904" fill="#f4a854" fill-rule="nonzero"/><path d="M65.268 57.853s33.179 13.303 45.919-17.384c0 0-31.604-15.32-45.919 17.384" fill="#f4a854" fill-rule="nonzero"/><path d="M63.758 55.039s35.385-5.067 31.074-38.013c0 0-35.029 2.535-31.074 38.013" fill="#f4a854" fill-rule="nonzero"/><path d="M61.044 53.36S89.155 31.278 68.947 4.9c0 0-29.069 19.711-7.903 48.46" fill="#f4a854" fill-rule="nonzero"/><path d="M57.853 53.262s13.303-33.179-17.385-45.92c0 0-15.318 31.605 17.385 45.92" fill="#f4a854" fill-rule="nonzero"/><path d="M56.575 56.402s-3.231-22.545-24.222-19.798c0 0 1.614 22.318 24.222 19.798" fill="#e06023" fill-rule="nonzero"/><path d="M55.441 60.164s-21.14-8.475-29.258 11.076c0 0 20.136 9.762 29.258-11.076" fill="#e06023" fill-rule="nonzero"/><path d="M58.132 63.027s-17.911 14.069-5.037 30.875c0 0 18.522-12.558 5.037-30.875" fill="#e06023" fill-rule="nonzero"/><path d="M61.956 62.127s3.229 22.544 24.22 19.798c0 0-1.615-22.318-24.22-19.798" fill="#e06023" fill-rule="nonzero"/><path d="M63.09 58.364s21.14 8.478 29.255-11.074c0 0-20.135-9.762-29.255 11.074" fill="#e06023" fill-rule="nonzero"/><path d="M60.398 55.503s17.91-14.069 5.036-30.875c0 0-18.521 12.557-5.036 30.875" fill="#e06023" fill-rule="nonzero"/><path d="M69.508 60.019c0 6.076-4.925 11.001-11.001 11.001s-11.001-4.925-11.001-11.001 4.925-11.002 11.001-11.002 11.001 4.926 11.001 11.002" fill="#ecaf1b" fill-rule="nonzero"/></svg>