<svg viewBox="0 0 128 124" xmlns="http://www.w3.org/2000/svg" fill-rule="evenodd" clip-rule="evenodd" stroke-linejoin="round" stroke-miterlimit="1.414"><path d="M38.39 61.602c-46.641-38.43-14.447-69.58 25.266-24.447 39.706-45.133 71.9-13.983 25.26 24.447 46.64 38.43 14.446 69.585-25.26 24.448-39.713 45.137-71.907 13.982-25.266-24.448" fill="#ee3041" fill-rule="nonzero"/><path d="M81.516 44.317c61.057-4.739 61.057 39.317 0 34.577 4.895 59.087-40.618 59.088-35.723 0-61.057 4.74-61.057-39.318 0-34.577-4.903-59.089 40.618-59.089 35.723 0" fill="#f45243" fill-rule="nonzero"/><path d="M42.405 59.956c0-10.933 9.158-19.798 20.46-19.798 11.292 0 20.452 8.865 20.452 19.798 0 10.931-9.16 19.796-20.452 19.796-11.302 0-20.46-8.865-20.46-19.796" fill="#690000" fill-rule="nonzero"/></svg>