<svg viewBox="0 0 1366 1358" xmlns="http://www.w3.org/2000/svg" fill-rule="evenodd" clip-rule="evenodd" stroke-linejoin="round" stroke-miterlimit="1.414"><path d="M655.031 6.476c-33.77 2.546-67.091 9.679-100.302 16.239-128.059 25.225-238.96 83.916-336.62 170.142C111.497 287.076 42.501 403.109 15.446 542.088c-42.744 218.904 7.59 416.212 155.923 583.017 96.744 108.775 218.384 182.059 362.938 212.01 30.393 6.302 115.36 14.374 146.403 13.976 47.391-.61 57.72.025 126.243-9.577 201.89-39.851 348.718-154.636 454.228-328.885 62.986-103.968 94.709-196.791 100.939-316.817.109-3.265 1.021-21.918 1.162-29.074.244-12.161.404-439.677.626-659.569-172.368-.185-460.714-1.213-611.235-1.213-55.782 0-92.636.142-97.642.52zM553.7 1236.186c-148.769-30.61-263.003-112.29-351.722-234.26-75.412-103.712-105.069-219.857-100.415-345.822 3.189-88.867 25.404-173.81 71.636-249.696 84.062-137.807 200.13-237.27 359.825-276.679 46.339-11.367 94.95-17.341 142.684-18.333 156.248-3.154 312.534-2.86 468.819-3.959 25.294-.109 50.48-.842 75.814-1.025 24.784-.146 29.99 5.058 29.99 29.585-.037 99.422 3.778 492.355-4.216 588.698-17.085 207.643-122.046 362.321-305.786 459.652-83.012 43.966-170.376 65.112-260.542 65.11-41.485 0-83.573-4.478-126.087-13.271z" fill="#fff" fill-rule="nonzero"/><path d="M496.227 191.493c-17.707 6.709-34.684 15.286-51.951 22.987-.658 2.236-1.245 4.471-1.866 6.746 175.165 135.864 350.329 271.8 529.562 410.786-8.172-.664-13.71.255-18.146-1.726-18.989-8.946-37.907-18.259-56.53-28.23-121.714-66.063-243.356-132.2-364.848-198.481-64.414-35.085-128.462-70.903-193.129-105.767-5.281-2.823-16.024-3.63-19.651-.33-12.39 11.291-22.767 24.745-36.001 39.962 189.607 154.779 377.164 307.803 564.652 460.827-1.616 2.271-3.193 4.469-4.77 6.746-210.874-113.248-421.743-226.382-635.223-341.022-6.27 16.425-11.694 31.09-17.338 45.683-3.778 9.894-1.616 16.717 7.114 23.9 42.45 35.266 83.914 71.782 126.441 107.085 71.306 59.28 142.978 118.377 215.309 176.67 56.973 46.118 115.152 90.771 172.598 136.488 8.8 7.037 16.244 15.984 24.344 24.014-1.174 1.171-2.308 2.233-3.446 3.3a1409534.028 1409534.028 0 0 1-575.574-304.068c-1.574 72.885 10.779 136.05 38.638 196.979 24.861 54.517 54.334 105.398 94.365 149.831 156.69 174.58 413.684 230.561 632.329 115.632 180.883-95.024 277.117-250.063 281.957-455.55 3.738-162.773 1.029-325.657 1.175-488.469 0-33.689-3.777-37.464-37.397-37.501-162.884-.148-325.656-.148-488.431-.55-.582-.002-1.164-.002-1.746-.002-63.019 0-123.737 11.864-182.437 34.06z" fill="#fff" fill-rule="nonzero"/></svg>